<?xml version="1.0" encoding="UTF-8" standalone="no"?>
<!DOCTYPE svg PUBLIC "-//W3C//DTD SVG 1.1//EN" "http://www.w3.org/Graphics/SVG/1.1/DTD/svg11.dtd">
<svg width="100%" height="100%" viewBox="0 0 390 66" version="1.1" xmlns="http://www.w3.org/2000/svg" xmlns:xlink="http://www.w3.org/1999/xlink" xml:space="preserve" xmlns:serif="http://www.serif.com/" style="fill-rule:evenodd;clip-rule:evenodd;stroke-linejoin:round;stroke-miterlimit:2;">
    <g>
        <g transform="matrix(1.39459,0,0,1.39459,-1.24474,-25.4904)">
            <path d="M42.56,60.97L42.56,51.76C42.56,51.46 42.38,51.19 42.1,51.08C41.82,50.96 41.51,51.03 41.3,51.24L33.31,59.19L33.31,51.76C33.31,51.46 33.13,51.19 32.85,51.08C32.57,50.96 32.26,51.03 32.05,51.24L24.06,59.19L24.06,51.76C24.06,51.46 23.88,51.19 23.61,51.08C23.33,50.96 23.02,51.03 22.8,51.24L13.58,60.42L13.57,60.41L11.1,62.81C10.57,63.33 10.14,63.31 9.78,63.19C9.52,63.11 9.33,63.03 9.2,62.92L8.73,64.06C8.96,64.22 9.22,64.35 9.54,64.45C10.86,64.87 11.62,64.36 12.49,63.53L14.6,61.46L14.62,61.48L22.59,53.55L22.59,60.98C22.59,61.28 22.77,61.55 23.04,61.66C23.13,61.7 23.23,61.72 23.32,61.72C23.51,61.72 23.7,61.64 23.84,61.5L31.83,53.55L31.83,60.98C31.83,61.39 32.16,61.72 32.57,61.72L41.82,61.72C42.23,61.71 42.56,61.38 42.56,60.97M41.08,60.23L34.36,60.23C35.9,58.69 39.55,55.07 41.08,53.54L41.08,60.23Z" style="fill:rgb(35,31,32);fill-rule:nonzero;"/>
        </g>
        <g transform="matrix(1.39459,0,0,1.39459,-1.24474,-25.4904)">
            <path d="M58.53,51.57C58.33,51.42 58.04,51.34 57.65,51.34C56.89,51.34 56.25,51.64 55.74,52.25C55.23,52.86 54.98,53.65 54.98,54.63L54.98,55.04L53.7,55.04L53.7,55.67L54.98,55.67L54.98,60.37C54.98,60.53 54.95,60.65 54.89,60.75C54.83,60.85 54.74,60.92 54.62,60.96C54.54,60.99 54.45,61 54.34,61.01C54.23,61.02 54.13,61.03 54.03,61.04L54.03,61.47L57.44,61.47L57.44,61.04C57.31,61.03 57.16,61.01 56.99,60.99C56.82,60.97 56.68,60.93 56.57,60.9C56.44,60.85 56.35,60.78 56.29,60.68C56.23,60.58 56.2,60.46 56.2,60.31L56.2,55.67L57.86,55.67L57.86,55.04L56.2,55.04L56.2,54.38C56.2,53.52 56.28,52.89 56.44,52.49C56.6,52.1 56.83,51.89 57.12,51.88C57.17,51.95 57.24,52.05 57.31,52.17C57.38,52.29 57.46,52.4 57.55,52.5C57.64,52.6 57.73,52.67 57.84,52.73C57.94,52.79 58.06,52.82 58.2,52.82C58.41,52.82 58.57,52.75 58.68,52.62C58.79,52.49 58.84,52.32 58.84,52.12C58.82,51.91 58.73,51.72 58.53,51.57M64.96,60.94C64.81,60.94 64.67,60.94 64.52,60.93C64.38,60.93 64.27,60.9 64.21,60.86C64.09,60.79 64,60.71 63.94,60.6C63.88,60.5 63.85,60.36 63.85,60.19C63.85,59.62 63.86,59.09 63.87,58.61C63.88,58.13 63.89,57.57 63.89,56.95C63.89,56.51 63.83,56.16 63.72,55.88C63.6,55.6 63.44,55.38 63.21,55.22C62.99,55.05 62.74,54.95 62.47,54.9C62.2,54.85 61.88,54.83 61.51,54.83C61.24,54.83 60.97,54.87 60.69,54.96C60.41,55.05 60.17,55.15 59.98,55.27C59.75,55.41 59.57,55.58 59.43,55.76C59.29,55.94 59.22,56.14 59.22,56.34C59.22,56.53 59.27,56.71 59.37,56.86C59.47,57.01 59.63,57.09 59.85,57.09C60.09,57.09 60.29,57.03 60.42,56.9C60.56,56.77 60.63,56.63 60.63,56.48C60.63,56.34 60.61,56.18 60.57,56.01C60.53,55.84 60.51,55.71 60.51,55.62C60.58,55.55 60.7,55.48 60.87,55.41C61.04,55.34 61.23,55.31 61.43,55.31C61.72,55.31 61.95,55.37 62.11,55.49C62.27,55.61 62.39,55.75 62.48,55.91C62.56,56.05 62.61,56.21 62.63,56.37C62.65,56.53 62.67,56.64 62.67,56.7L62.67,57.35C62.46,57.46 62.06,57.62 61.46,57.82C60.86,58.02 60.46,58.16 60.27,58.23C60.11,58.29 59.94,58.37 59.77,58.48C59.59,58.58 59.45,58.7 59.34,58.83C59.2,58.99 59.1,59.16 59.03,59.36C58.96,59.56 58.93,59.78 58.93,60.03C58.93,60.51 59.09,60.9 59.4,61.2C59.71,61.5 60.11,61.65 60.6,61.65C61.06,61.65 61.45,61.57 61.78,61.4C62.11,61.23 62.41,60.99 62.69,60.68L62.73,60.68C62.79,60.99 62.92,61.22 63.12,61.38C63.32,61.54 63.59,61.62 63.94,61.62C64.14,61.62 64.31,61.6 64.47,61.55C64.62,61.5 64.8,61.44 65.01,61.37L65.01,60.94L64.96,60.94ZM62.64,60.17C62.48,60.38 62.28,60.55 62.04,60.71C61.8,60.86 61.53,60.94 61.22,60.94C60.93,60.94 60.69,60.85 60.5,60.68C60.31,60.51 60.22,60.24 60.22,59.88C60.22,59.6 60.28,59.36 60.41,59.15C60.54,58.95 60.71,58.77 60.93,58.62C61.17,58.46 61.43,58.33 61.71,58.23C61.99,58.13 62.31,58.02 62.69,57.91L62.64,60.17ZM69.21,61.05C69.1,61.04 69,61.02 68.9,61C68.81,60.98 68.72,60.94 68.62,60.91C68.49,60.86 68.4,60.79 68.34,60.69C68.28,60.59 68.25,60.46 68.25,60.31L68.25,55.05L68.16,54.96L65.88,55.1L65.88,55.53C66.01,55.54 66.16,55.56 66.31,55.6C66.47,55.64 66.59,55.68 66.67,55.73C66.78,55.81 66.87,55.91 66.94,56.02C67,56.14 67.03,56.26 67.03,56.4L67.03,60.38C67.03,60.54 67,60.66 66.94,60.76C66.88,60.86 66.79,60.93 66.67,60.97C66.59,61 66.5,61.01 66.39,61.02C66.28,61.03 66.18,61.04 66.08,61.05L66.08,61.48L69.2,61.48L69.2,61.05L69.21,61.05ZM68.15,51.81C67.99,51.64 67.79,51.56 67.54,51.56C67.32,51.56 67.12,51.65 66.96,51.83C66.8,52.01 66.71,52.22 66.71,52.46C66.71,52.69 66.79,52.89 66.96,53.07C67.12,53.25 67.32,53.33 67.54,53.33C67.78,53.33 67.98,53.24 68.15,53.05C68.31,52.86 68.4,52.65 68.4,52.4C68.39,52.17 68.31,51.98 68.15,51.81M75.16,55.13C74.99,54.95 74.76,54.86 74.49,54.86C74.21,54.86 73.91,54.95 73.58,55.13C73.25,55.31 72.95,55.58 72.68,55.94L72.65,55.94L72.65,55.03L72.56,54.94L70.41,55.08L70.41,55.51C70.54,55.52 70.66,55.53 70.78,55.56C70.89,55.58 70.99,55.62 71.07,55.67C71.18,55.75 71.27,55.85 71.34,55.98C71.4,56.11 71.43,56.24 71.43,56.38L71.43,60.36C71.43,60.52 71.4,60.64 71.34,60.74C71.28,60.84 71.19,60.91 71.07,60.95C70.99,60.98 70.9,60.99 70.79,61C70.68,61.01 70.58,61.02 70.48,61.03L70.48,61.46L73.89,61.46L73.89,61.03C73.76,61.02 73.61,61.01 73.44,60.98C73.27,60.96 73.13,60.93 73.02,60.88C72.89,60.83 72.8,60.76 72.74,60.66C72.68,60.56 72.65,60.44 72.65,60.29L72.65,56.53C72.84,56.22 73.08,55.99 73.35,55.82C73.62,55.65 73.87,55.57 74.07,55.57C74.06,55.65 74.04,55.73 74.03,55.81C74,55.91 74,56 74,56.1C74,56.25 74.06,56.39 74.19,56.52C74.32,56.65 74.51,56.71 74.75,56.71C74.98,56.71 75.14,56.62 75.25,56.45C75.36,56.28 75.41,56.08 75.41,55.86C75.42,55.55 75.33,55.31 75.16,55.13M81.71,59.68C81.45,60.15 81.18,60.48 80.89,60.66C80.61,60.84 80.27,60.93 79.88,60.93C79.5,60.93 79.17,60.86 78.9,60.71C78.63,60.56 78.4,60.36 78.23,60.11C78.06,59.85 77.93,59.54 77.85,59.2C77.77,58.85 77.73,58.47 77.73,58.04L82.01,58.04L82.01,57.61C82.01,57.22 81.96,56.86 81.86,56.53C81.76,56.2 81.61,55.91 81.41,55.67C81.2,55.41 80.93,55.21 80.59,55.06C80.25,54.91 79.85,54.84 79.38,54.84C78.92,54.84 78.51,54.93 78.14,55.12C77.77,55.31 77.46,55.56 77.21,55.87C76.95,56.19 76.76,56.56 76.62,56.96C76.49,57.36 76.42,57.78 76.42,58.19C76.42,58.66 76.48,59.1 76.61,59.52C76.73,59.94 76.92,60.31 77.18,60.62C77.43,60.93 77.75,61.18 78.15,61.37C78.54,61.55 79,61.65 79.52,61.65C80.11,61.65 80.63,61.5 81.08,61.19C81.53,60.88 81.9,60.47 82.17,59.96L81.71,59.68ZM77.74,57.5C77.77,56.82 77.93,56.29 78.23,55.91C78.53,55.53 78.91,55.34 79.37,55.34C79.65,55.34 79.87,55.4 80.04,55.53C80.21,55.66 80.35,55.82 80.45,56.02C80.54,56.21 80.61,56.44 80.65,56.72C80.69,57 80.71,57.26 80.71,57.5L77.74,57.5ZM91.54,61.2C92.01,60.9 92.39,60.49 92.68,59.98L92.26,59.71C92.02,60.12 91.75,60.43 91.47,60.64C91.18,60.85 90.83,60.95 90.41,60.95C89.83,60.95 89.35,60.69 88.99,60.18C88.63,59.67 88.45,59 88.45,58.19C88.45,57.68 88.5,57.23 88.6,56.86C88.7,56.49 88.83,56.19 88.99,55.98C89.17,55.74 89.35,55.58 89.54,55.49C89.73,55.4 89.93,55.36 90.14,55.36C90.32,55.36 90.48,55.38 90.64,55.43C90.79,55.48 90.91,55.57 90.99,55.7C90.98,55.8 90.95,55.95 90.9,56.15C90.85,56.36 90.82,56.56 90.82,56.75C90.82,56.91 90.89,57.06 91.03,57.19C91.17,57.32 91.37,57.39 91.63,57.39C91.87,57.39 92.04,57.31 92.15,57.14C92.25,56.97 92.31,56.78 92.31,56.56C92.31,56.04 92.11,55.62 91.71,55.32C91.31,55.02 90.8,54.87 90.16,54.87C89.7,54.87 89.28,54.96 88.89,55.15C88.5,55.34 88.18,55.59 87.92,55.9C87.65,56.22 87.44,56.58 87.3,56.98C87.16,57.37 87.09,57.8 87.09,58.25C87.09,59.29 87.35,60.12 87.88,60.74C88.41,61.36 89.14,61.67 90.07,61.67C90.58,61.65 91.07,61.5 91.54,61.2M99.07,55.75C98.48,55.14 97.74,54.84 96.83,54.84C95.88,54.84 95.11,55.16 94.52,55.8C93.93,56.44 93.64,57.27 93.64,58.28C93.64,58.8 93.72,59.28 93.89,59.7C94.06,60.12 94.28,60.48 94.57,60.77C94.86,61.07 95.19,61.29 95.56,61.45C95.93,61.6 96.32,61.68 96.73,61.68C97.22,61.68 97.67,61.59 98.07,61.42C98.47,61.25 98.82,60.99 99.12,60.64C99.39,60.33 99.59,59.96 99.74,59.52C99.88,59.08 99.96,58.63 99.96,58.18C99.95,57.17 99.66,56.36 99.07,55.75M98.12,60.39C97.8,60.92 97.37,61.18 96.82,61.18C96.49,61.18 96.21,61.1 95.98,60.94C95.75,60.78 95.57,60.56 95.42,60.28C95.27,60 95.16,59.68 95.09,59.33C95.02,58.97 94.99,58.59 94.99,58.17C94.99,57.85 95.02,57.52 95.08,57.18C95.14,56.84 95.24,56.54 95.38,56.27C95.53,55.98 95.72,55.76 95.96,55.59C96.2,55.42 96.49,55.34 96.82,55.34C97.15,55.34 97.43,55.42 97.65,55.59C97.88,55.75 98.06,55.97 98.2,56.24C98.33,56.49 98.43,56.8 98.5,57.17C98.57,57.53 98.6,57.88 98.6,58.21C98.6,59.13 98.44,59.86 98.12,60.39M106.04,55.13C105.87,54.95 105.64,54.86 105.37,54.86C105.1,54.86 104.79,54.95 104.46,55.13C104.13,55.31 103.83,55.58 103.56,55.94L103.53,55.94L103.53,55.03L103.44,54.94L101.29,55.08L101.29,55.51C101.42,55.52 101.54,55.53 101.66,55.56C101.77,55.58 101.87,55.62 101.95,55.67C102.06,55.75 102.15,55.85 102.22,55.98C102.28,56.11 102.32,56.24 102.32,56.38L102.32,60.36C102.32,60.52 102.29,60.64 102.23,60.74C102.17,60.84 102.08,60.91 101.96,60.95C101.88,60.98 101.79,60.99 101.68,61C101.57,61.01 101.47,61.02 101.37,61.03L101.37,61.46L104.77,61.46L104.77,61.03C104.64,61.02 104.49,61.01 104.32,60.98C104.15,60.96 104.01,60.93 103.9,60.88C103.77,60.83 103.68,60.76 103.62,60.66C103.56,60.56 103.53,60.44 103.53,60.29L103.53,56.53C103.72,56.22 103.96,55.99 104.23,55.82C104.5,55.65 104.74,55.57 104.95,55.57C104.94,55.65 104.92,55.73 104.91,55.81C104.9,55.89 104.89,55.98 104.89,56.07C104.89,56.22 104.95,56.36 105.08,56.49C105.21,56.62 105.4,56.68 105.64,56.68C105.87,56.68 106.03,56.59 106.14,56.42C106.25,56.25 106.3,56.05 106.3,55.83C106.29,55.55 106.21,55.31 106.04,55.13M112.35,55.1C112.02,54.93 111.65,54.84 111.25,54.84C110.92,54.84 110.58,54.93 110.25,55.1C109.91,55.27 109.63,55.49 109.4,55.75L109.35,55.74L109.35,55.01L109.26,54.93L107.06,55.07L107.06,55.5C107.19,55.51 107.33,55.53 107.47,55.56C107.61,55.59 107.72,55.63 107.8,55.68C107.91,55.75 107.99,55.85 108.06,55.97C108.13,56.09 108.16,56.22 108.16,56.35L108.16,63.22C108.16,63.37 108.13,63.5 108.08,63.61C108.03,63.72 107.94,63.8 107.81,63.84C107.71,63.87 107.6,63.89 107.47,63.91C107.34,63.92 107.21,63.93 107.08,63.94L107.08,64.37L110.69,64.37L110.69,63.94C110.56,63.94 110.4,63.92 110.21,63.88C110.02,63.84 109.87,63.8 109.76,63.77C109.63,63.72 109.54,63.65 109.48,63.54C109.42,63.43 109.39,63.3 109.39,63.15L109.39,61.21L109.44,61.21C109.6,61.33 109.8,61.43 110.05,61.52C110.3,61.61 110.62,61.65 111.01,61.65C111.41,61.65 111.79,61.57 112.15,61.41C112.51,61.25 112.83,61.02 113.13,60.72C113.41,60.42 113.63,60.06 113.81,59.64C113.98,59.22 114.06,58.75 114.06,58.24C114.06,57.72 113.99,57.26 113.85,56.85C113.71,56.45 113.51,56.09 113.25,55.79C112.97,55.5 112.69,55.27 112.35,55.1M111.58,60.98C111.35,61.11 111.12,61.17 110.87,61.17C110.64,61.17 110.45,61.14 110.29,61.07C110.13,61 109.99,60.91 109.85,60.8C109.74,60.71 109.64,60.6 109.55,60.47C109.46,60.34 109.4,60.22 109.36,60.1L109.36,56.28C109.53,56.08 109.72,55.91 109.95,55.77C110.18,55.63 110.45,55.56 110.78,55.56C111.12,55.56 111.4,55.64 111.64,55.8C111.88,55.96 112.07,56.16 112.22,56.42C112.37,56.67 112.48,56.96 112.55,57.3C112.62,57.64 112.65,57.97 112.65,58.29C112.65,58.73 112.61,59.13 112.53,59.49C112.45,59.85 112.32,60.16 112.14,60.43C111.99,60.67 111.8,60.85 111.58,60.98M119.08,57.91C118.82,57.79 118.55,57.68 118.26,57.59C117.97,57.49 117.72,57.41 117.52,57.33C117.32,57.25 117.16,57.17 117.03,57.08C116.9,56.99 116.79,56.88 116.73,56.75C116.66,56.62 116.63,56.46 116.63,56.26C116.63,56.01 116.73,55.79 116.94,55.61C117.14,55.43 117.43,55.34 117.78,55.34C118.22,55.34 118.59,55.49 118.89,55.78C119.19,56.07 119.39,56.45 119.48,56.91L119.93,56.91L119.83,54.83L119.36,54.83L119.21,55.17C119.04,55.08 118.83,55 118.56,54.93C118.3,54.86 118.04,54.83 117.78,54.83C117.12,54.83 116.59,55.01 116.2,55.38C115.81,55.75 115.61,56.19 115.61,56.72C115.61,57.02 115.67,57.28 115.79,57.51C115.91,57.73 116.07,57.92 116.26,58.07C116.44,58.21 116.65,58.34 116.9,58.45C117.15,58.56 117.38,58.64 117.58,58.7C117.84,58.78 118.07,58.86 118.28,58.94C118.49,59.02 118.67,59.11 118.81,59.21C118.95,59.31 119.06,59.43 119.13,59.56C119.2,59.69 119.24,59.85 119.24,60.03C119.24,60.39 119.13,60.66 118.9,60.85C118.67,61.04 118.35,61.14 117.93,61.14C117.63,61.14 117.37,61.07 117.13,60.94C116.89,60.81 116.69,60.65 116.52,60.45C116.36,60.27 116.22,60.06 116.11,59.83C116,59.6 115.92,59.4 115.89,59.23L115.44,59.23L115.51,61.48L116,61.48L116.13,61.05C116.27,61.16 116.49,61.29 116.81,61.42C117.13,61.56 117.47,61.62 117.85,61.62C118.56,61.62 119.14,61.43 119.59,61.05C120.04,60.67 120.26,60.18 120.26,59.58C120.26,59.28 120.21,59.03 120.12,58.83C120.02,58.63 119.89,58.44 119.71,58.29C119.54,58.17 119.33,58.03 119.08,57.91M131.53,60.94C131.38,60.94 131.24,60.94 131.09,60.93C130.95,60.93 130.84,60.9 130.78,60.86C130.66,60.79 130.57,60.71 130.51,60.6C130.45,60.5 130.42,60.36 130.42,60.19C130.42,59.62 130.43,59.09 130.44,58.61C130.45,58.13 130.46,57.57 130.46,56.95C130.46,56.51 130.4,56.16 130.29,55.88C130.17,55.6 130.01,55.38 129.78,55.22C129.56,55.05 129.31,54.95 129.04,54.9C128.77,54.85 128.45,54.83 128.08,54.83C127.81,54.83 127.54,54.87 127.26,54.96C126.98,55.05 126.74,55.15 126.55,55.27C126.32,55.41 126.14,55.58 126,55.76C125.86,55.94 125.79,56.14 125.79,56.34C125.79,56.53 125.84,56.71 125.94,56.86C126.04,57.01 126.2,57.09 126.42,57.09C126.67,57.09 126.86,57.03 126.99,56.9C127.13,56.77 127.2,56.63 127.2,56.48C127.2,56.34 127.18,56.18 127.14,56.01C127.1,55.84 127.08,55.71 127.08,55.62C127.15,55.55 127.27,55.48 127.44,55.41C127.61,55.34 127.8,55.31 128,55.31C128.29,55.31 128.52,55.37 128.68,55.49C128.84,55.61 128.96,55.75 129.05,55.91C129.13,56.05 129.18,56.21 129.2,56.37C129.22,56.53 129.24,56.64 129.24,56.7L129.24,57.35C129.03,57.46 128.63,57.62 128.03,57.82C127.43,58.02 127.03,58.16 126.83,58.23C126.67,58.29 126.5,58.37 126.33,58.48C126.15,58.58 126.01,58.7 125.9,58.83C125.76,58.99 125.66,59.16 125.59,59.36C125.52,59.56 125.48,59.78 125.48,60.03C125.48,60.51 125.64,60.9 125.95,61.2C126.26,61.5 126.66,61.65 127.15,61.65C127.61,61.65 128,61.57 128.32,61.4C128.65,61.23 128.95,60.99 129.23,60.68L129.27,60.68C129.33,60.99 129.46,61.22 129.66,61.38C129.86,61.54 130.14,61.62 130.48,61.62C130.68,61.62 130.85,61.6 131.01,61.55C131.16,61.5 131.35,61.44 131.55,61.37L131.55,60.94L131.53,60.94ZM129.21,60.17C129.05,60.38 128.85,60.55 128.61,60.71C128.38,60.86 128.1,60.94 127.79,60.94C127.5,60.94 127.26,60.85 127.07,60.68C126.88,60.51 126.78,60.24 126.78,59.88C126.78,59.6 126.84,59.36 126.97,59.15C127.1,58.95 127.27,58.77 127.49,58.62C127.73,58.46 127.99,58.33 128.27,58.23C128.55,58.13 128.87,58.02 129.25,57.91L129.21,60.17ZM139.04,55.02L136.55,55.02L136.55,55.44C136.61,55.45 136.69,55.46 136.79,55.49C136.89,55.51 136.98,55.54 137.08,55.59C137.18,55.63 137.27,55.68 137.34,55.74C137.41,55.8 137.45,55.87 137.45,55.94C137.45,56.04 137.43,56.15 137.39,56.25C137.35,56.35 137.31,56.46 137.27,56.58C137,57.27 136.74,57.89 136.5,58.45C136.26,59.01 136.06,59.47 135.91,59.85C135.71,59.36 135.44,58.72 135.11,57.92C134.78,57.12 134.53,56.5 134.35,56.06C134.33,55.99 134.31,55.93 134.28,55.87C134.26,55.82 134.25,55.78 134.25,55.77C134.25,55.68 134.35,55.61 134.55,55.56C134.75,55.51 134.91,55.48 135.04,55.48L135.04,55.02L132.05,55.02L132.05,55.45C132.25,55.48 132.44,55.55 132.64,55.66C132.83,55.77 132.98,55.93 133.06,56.13C133.43,57.02 133.8,57.88 134.15,58.73C134.5,59.57 134.88,60.51 135.3,61.54L135.81,61.54C135.89,61.29 135.98,61.02 136.08,60.75C136.18,60.47 136.27,60.24 136.36,60.04C136.66,59.34 136.94,58.67 137.22,58.04C137.49,57.4 137.76,56.79 138.02,56.21C138.15,55.94 138.3,55.75 138.48,55.64C138.66,55.53 138.84,55.46 139.04,55.43L139.04,55.02ZM145.05,59.68C144.79,60.15 144.52,60.48 144.23,60.66C143.95,60.84 143.61,60.93 143.22,60.93C142.84,60.93 142.51,60.86 142.24,60.71C141.97,60.56 141.74,60.36 141.57,60.11C141.4,59.85 141.27,59.54 141.19,59.2C141.11,58.85 141.07,58.47 141.07,58.04L145.35,58.04L145.35,57.61C145.35,57.22 145.3,56.86 145.2,56.53C145.1,56.2 144.95,55.91 144.75,55.67C144.54,55.41 144.27,55.21 143.93,55.06C143.59,54.91 143.19,54.84 142.72,54.84C142.26,54.84 141.85,54.93 141.48,55.12C141.11,55.31 140.8,55.56 140.55,55.87C140.29,56.19 140.1,56.56 139.96,56.96C139.83,57.36 139.76,57.78 139.76,58.19C139.76,58.66 139.82,59.1 139.95,59.52C140.07,59.94 140.26,60.31 140.52,60.62C140.77,60.93 141.1,61.18 141.49,61.37C141.88,61.55 142.34,61.65 142.86,61.65C143.45,61.65 143.97,61.5 144.42,61.19C144.87,60.88 145.24,60.47 145.51,59.96L145.05,59.68ZM141.07,57.5C141.1,56.82 141.26,56.29 141.56,55.91C141.86,55.53 142.24,55.34 142.7,55.34C142.98,55.34 143.2,55.4 143.38,55.53C143.55,55.66 143.69,55.82 143.79,56.02C143.88,56.21 143.95,56.44 143.99,56.72C144.03,57 144.05,57.26 144.05,57.5L141.07,57.5ZM151.17,61.2C151.64,60.9 152.02,60.49 152.31,59.98L151.89,59.71C151.65,60.12 151.38,60.43 151.1,60.64C150.81,60.85 150.46,60.95 150.04,60.95C149.46,60.95 148.98,60.69 148.62,60.18C148.26,59.67 148.08,59 148.08,58.19C148.08,57.68 148.13,57.23 148.23,56.86C148.33,56.49 148.46,56.19 148.62,55.98C148.8,55.74 148.98,55.58 149.17,55.49C149.36,55.4 149.56,55.36 149.77,55.36C149.95,55.36 150.12,55.38 150.27,55.43C150.42,55.48 150.54,55.57 150.62,55.7C150.61,55.8 150.58,55.95 150.53,56.15C150.48,56.36 150.45,56.56 150.45,56.75C150.45,56.91 150.52,57.06 150.66,57.19C150.8,57.32 151,57.39 151.26,57.39C151.5,57.39 151.67,57.31 151.78,57.14C151.88,56.97 151.94,56.78 151.94,56.56C151.94,56.04 151.74,55.62 151.34,55.32C150.94,55.02 150.43,54.87 149.79,54.87C149.33,54.87 148.91,54.96 148.52,55.15C148.13,55.34 147.81,55.59 147.55,55.9C147.28,56.22 147.07,56.58 146.93,56.98C146.79,57.37 146.72,57.8 146.72,58.25C146.72,59.29 146.98,60.12 147.51,60.74C148.04,61.36 148.77,61.67 149.7,61.67C150.21,61.65 150.7,61.5 151.17,61.2M160.01,61.05C159.89,61.04 159.79,61.03 159.69,61C159.6,60.98 159.5,60.95 159.4,60.9C159.27,60.85 159.18,60.77 159.13,60.67C159.07,60.57 159.04,60.45 159.04,60.29L159.04,51.43L158.95,51.33L156.52,51.47L156.52,51.89C156.65,51.9 156.81,51.92 157.02,51.97C157.23,52.01 157.37,52.06 157.45,52.11C157.56,52.19 157.65,52.3 157.71,52.43C157.78,52.57 157.81,52.72 157.81,52.87L157.81,60.35C157.81,60.51 157.78,60.64 157.72,60.73C157.66,60.83 157.57,60.9 157.45,60.94C157.37,60.96 157.28,60.98 157.17,60.99C157.06,61 156.95,61.01 156.85,61.02L156.85,61.45L160,61.45L160,61.05L160.01,61.05ZM167.41,60.94C167.26,60.94 167.12,60.94 166.97,60.93C166.83,60.93 166.72,60.9 166.66,60.86C166.54,60.79 166.45,60.71 166.39,60.6C166.33,60.5 166.3,60.36 166.3,60.19C166.3,59.62 166.31,59.09 166.32,58.61C166.33,58.13 166.34,57.57 166.34,56.95C166.34,56.51 166.28,56.16 166.17,55.88C166.05,55.6 165.88,55.38 165.66,55.22C165.44,55.05 165.19,54.95 164.92,54.9C164.65,54.85 164.33,54.83 163.96,54.83C163.69,54.83 163.42,54.87 163.14,54.96C162.86,55.05 162.62,55.15 162.43,55.27C162.2,55.41 162.02,55.58 161.88,55.76C161.74,55.94 161.67,56.14 161.67,56.34C161.67,56.53 161.72,56.71 161.82,56.86C161.92,57.01 162.08,57.09 162.3,57.09C162.54,57.09 162.74,57.03 162.87,56.9C163.01,56.77 163.08,56.63 163.08,56.48C163.08,56.34 163.06,56.18 163.02,56.01C162.98,55.84 162.96,55.71 162.96,55.62C163.03,55.55 163.15,55.48 163.32,55.41C163.49,55.34 163.68,55.31 163.88,55.31C164.17,55.31 164.4,55.37 164.56,55.49C164.72,55.61 164.84,55.75 164.93,55.91C165.01,56.05 165.06,56.21 165.08,56.37C165.1,56.53 165.12,56.64 165.12,56.7L165.12,57.35C164.91,57.46 164.51,57.62 163.9,57.82C163.3,58.02 162.9,58.16 162.71,58.23C162.55,58.29 162.38,58.37 162.21,58.48C162.03,58.58 161.89,58.7 161.78,58.83C161.64,58.99 161.54,59.16 161.47,59.36C161.4,59.56 161.37,59.78 161.37,60.03C161.37,60.51 161.53,60.9 161.84,61.2C162.15,61.5 162.55,61.65 163.03,61.65C163.49,61.65 163.88,61.57 164.21,61.4C164.54,61.23 164.84,60.99 165.12,60.68L165.16,60.68C165.22,60.99 165.35,61.22 165.55,61.38C165.75,61.54 166.03,61.62 166.37,61.62C166.57,61.62 166.74,61.6 166.9,61.55C167.05,61.5 167.24,61.44 167.44,61.37L167.44,60.94L167.41,60.94ZM165.08,60.17C164.92,60.38 164.72,60.55 164.48,60.71C164.24,60.86 163.97,60.94 163.66,60.94C163.37,60.94 163.13,60.85 162.94,60.68C162.75,60.51 162.65,60.24 162.65,59.88C162.65,59.6 162.71,59.36 162.84,59.15C162.97,58.95 163.14,58.77 163.36,58.62C163.6,58.46 163.86,58.33 164.14,58.23C164.42,58.13 164.74,58.02 165.12,57.91L165.08,60.17ZM183.27,61.05C183.15,61.04 183.04,61.03 182.94,61.01C182.84,60.99 182.74,60.96 182.64,60.92C182.51,60.87 182.42,60.79 182.37,60.69C182.32,60.59 182.29,60.47 182.29,60.31L182.29,57.03C182.29,56.29 182.13,55.74 181.81,55.38C181.49,55.02 181.06,54.84 180.52,54.84C180.25,54.84 180,54.88 179.77,54.95C179.55,55.02 179.35,55.11 179.18,55.23C178.98,55.36 178.83,55.48 178.71,55.6C178.59,55.72 178.45,55.85 178.29,56C178.16,55.68 177.94,55.41 177.64,55.18C177.34,54.96 176.98,54.84 176.56,54.84C176.29,54.84 176.05,54.88 175.82,54.95C175.59,55.02 175.4,55.11 175.25,55.21C175.11,55.3 174.97,55.42 174.81,55.57C174.65,55.72 174.52,55.85 174.41,55.96L174.36,55.96L174.36,55.04L174.27,54.95L172.11,55.09L172.11,55.52C172.24,55.53 172.37,55.55 172.49,55.58C172.61,55.61 172.72,55.66 172.8,55.71C172.91,55.79 173,55.88 173.07,55.99C173.13,56.1 173.17,56.23 173.17,56.37L173.17,60.38C173.17,60.54 173.14,60.66 173.08,60.76C173.02,60.86 172.93,60.93 172.81,60.97C172.73,61 172.64,61.01 172.53,61.02C172.42,61.03 172.32,61.04 172.22,61.05L172.22,61.48L175.36,61.48L175.36,61.05C175.24,61.04 175.14,61.03 175.04,61C174.94,60.98 174.85,60.95 174.76,60.9C174.64,60.85 174.55,60.77 174.48,60.67C174.42,60.57 174.39,60.45 174.39,60.3L174.39,56.6C174.43,56.54 174.5,56.45 174.59,56.33C174.68,56.21 174.79,56.1 174.91,56.01C175.07,55.89 175.24,55.8 175.43,55.73C175.62,55.66 175.82,55.63 176.03,55.63C176.34,55.63 176.6,55.75 176.81,56C177.02,56.25 177.12,56.6 177.12,57.05L177.12,60.38C177.12,60.54 177.09,60.66 177.03,60.76C176.97,60.86 176.88,60.93 176.76,60.97C176.68,61 176.6,61.01 176.5,61.02C176.41,61.03 176.31,61.04 176.21,61.05L176.21,61.48L179.29,61.48L179.29,61.05C179.16,61.04 179.05,61.03 178.97,61.01C178.89,60.99 178.8,60.96 178.7,60.92C178.57,60.87 178.48,60.79 178.43,60.69C178.38,60.59 178.35,60.47 178.35,60.31L178.35,56.58C178.39,56.51 178.46,56.41 178.54,56.3C178.62,56.19 178.73,56.08 178.86,55.99C179.02,55.87 179.19,55.78 179.38,55.71C179.57,55.64 179.77,55.61 179.98,55.61C180.29,55.61 180.55,55.73 180.76,55.98C180.97,56.23 181.07,56.58 181.07,57.03L181.07,60.36C181.07,60.52 181.04,60.64 180.98,60.74C180.92,60.84 180.83,60.91 180.71,60.95C180.63,60.98 180.54,60.99 180.44,61C180.34,61.01 180.24,61.02 180.14,61.03L180.14,61.46L183.28,61.46L183.28,61.05L183.27,61.05ZM190.62,60.94C190.47,60.94 190.33,60.94 190.18,60.93C190.04,60.93 189.93,60.9 189.87,60.86C189.75,60.79 189.66,60.71 189.6,60.6C189.54,60.5 189.51,60.36 189.51,60.19C189.51,59.62 189.52,59.09 189.53,58.61C189.54,58.13 189.55,57.57 189.55,56.95C189.55,56.51 189.49,56.16 189.38,55.88C189.26,55.6 189.09,55.38 188.87,55.22C188.65,55.05 188.4,54.95 188.13,54.9C187.86,54.85 187.54,54.83 187.17,54.83C186.9,54.83 186.63,54.87 186.35,54.96C186.07,55.05 185.83,55.15 185.64,55.27C185.41,55.41 185.23,55.58 185.09,55.76C184.95,55.94 184.88,56.14 184.88,56.34C184.88,56.53 184.93,56.71 185.03,56.86C185.13,57.01 185.29,57.09 185.51,57.09C185.75,57.09 185.95,57.03 186.08,56.9C186.22,56.77 186.29,56.63 186.29,56.48C186.29,56.34 186.27,56.18 186.23,56.01C186.19,55.84 186.17,55.71 186.17,55.62C186.24,55.55 186.36,55.48 186.53,55.41C186.7,55.34 186.89,55.31 187.09,55.31C187.38,55.31 187.61,55.37 187.77,55.49C187.93,55.61 188.05,55.75 188.14,55.91C188.22,56.05 188.27,56.21 188.29,56.37C188.31,56.53 188.33,56.64 188.33,56.7L188.33,57.35C188.12,57.46 187.72,57.62 187.12,57.82C186.52,58.02 186.12,58.16 185.92,58.23C185.76,58.29 185.6,58.37 185.42,58.48C185.24,58.58 185.1,58.7 184.99,58.83C184.85,58.99 184.75,59.16 184.68,59.36C184.61,59.56 184.57,59.78 184.57,60.03C184.57,60.51 184.73,60.9 185.04,61.2C185.35,61.5 185.75,61.65 186.24,61.65C186.7,61.65 187.09,61.57 187.41,61.4C187.74,61.23 188.04,60.99 188.32,60.68L188.36,60.68C188.42,60.99 188.55,61.22 188.75,61.38C188.95,61.54 189.23,61.62 189.57,61.62C189.77,61.62 189.94,61.6 190.1,61.55C190.25,61.5 190.44,61.44 190.64,61.37L190.64,60.94L190.62,60.94ZM188.3,60.17C188.14,60.38 187.94,60.55 187.7,60.71C187.46,60.86 187.19,60.94 186.88,60.94C186.59,60.94 186.35,60.85 186.16,60.68C185.97,60.51 185.87,60.24 185.87,59.88C185.87,59.6 185.93,59.36 186.06,59.15C186.19,58.95 186.36,58.77 186.58,58.62C186.82,58.46 187.08,58.33 187.36,58.23C187.64,58.13 187.96,58.02 188.34,57.91L188.3,60.17ZM195.72,60.72C195.63,60.75 195.48,60.78 195.27,60.8C195.06,60.82 194.9,60.83 194.79,60.83C194.55,60.83 194.37,60.8 194.23,60.73C194.09,60.66 193.99,60.57 193.92,60.44C193.85,60.31 193.8,60.15 193.78,59.97C193.76,59.79 193.75,59.56 193.75,59.29L193.75,55.68L195.59,55.68L195.59,55.05L193.74,55.05L193.74,53.04L192.55,53.04L192.55,55.05L191.36,55.05L191.36,55.68L192.53,55.68L192.53,60.05C192.53,60.55 192.64,60.93 192.86,61.21C193.08,61.48 193.46,61.62 194,61.62C194.37,61.62 194.68,61.58 194.93,61.5C195.18,61.42 195.45,61.32 195.74,61.2L195.74,60.72L195.72,60.72ZM199.96,61.05C199.85,61.04 199.75,61.02 199.65,61C199.56,60.98 199.47,60.94 199.37,60.91C199.24,60.86 199.15,60.79 199.09,60.69C199.03,60.59 199,60.46 199,60.31L199,55.05L198.91,54.96L196.63,55.1L196.63,55.53C196.76,55.54 196.9,55.56 197.06,55.6C197.22,55.64 197.34,55.68 197.42,55.73C197.53,55.81 197.62,55.91 197.69,56.02C197.75,56.14 197.79,56.26 197.79,56.4L197.79,60.38C197.79,60.54 197.76,60.66 197.7,60.76C197.64,60.86 197.55,60.93 197.43,60.97C197.35,61 197.26,61.01 197.15,61.02C197.04,61.03 196.94,61.04 196.84,61.05L196.84,61.48L199.96,61.48L199.96,61.05ZM198.9,51.81C198.74,51.64 198.54,51.56 198.29,51.56C198.07,51.56 197.87,51.65 197.71,51.83C197.55,52.01 197.46,52.22 197.46,52.46C197.46,52.69 197.54,52.89 197.71,53.07C197.87,53.25 198.07,53.33 198.29,53.33C198.53,53.33 198.73,53.24 198.9,53.05C199.06,52.86 199.15,52.65 199.15,52.4C199.14,52.17 199.06,51.98 198.9,51.81M206.51,59.68C206.25,60.15 205.98,60.48 205.7,60.66C205.42,60.84 205.08,60.93 204.69,60.93C204.31,60.93 203.98,60.86 203.71,60.71C203.44,60.56 203.21,60.36 203.04,60.11C202.87,59.85 202.74,59.54 202.66,59.2C202.58,58.85 202.54,58.47 202.54,58.04L206.82,58.04L206.82,57.61C206.82,57.22 206.77,56.86 206.67,56.53C206.57,56.2 206.42,55.91 206.22,55.67C206.01,55.41 205.74,55.21 205.4,55.06C205.06,54.91 204.66,54.84 204.19,54.84C203.73,54.84 203.32,54.93 202.95,55.12C202.58,55.31 202.27,55.56 202.02,55.87C201.76,56.19 201.57,56.56 201.43,56.96C201.3,57.36 201.23,57.78 201.23,58.19C201.23,58.66 201.29,59.1 201.42,59.52C201.54,59.94 201.73,60.31 201.99,60.62C202.24,60.93 202.56,61.18 202.96,61.37C203.35,61.55 203.81,61.65 204.33,61.65C204.92,61.65 205.44,61.5 205.89,61.19C206.34,60.88 206.71,60.47 206.98,59.96L206.51,59.68ZM202.53,57.5C202.56,56.82 202.72,56.29 203.02,55.91C203.32,55.53 203.7,55.34 204.16,55.34C204.43,55.34 204.66,55.4 204.83,55.53C205,55.66 205.14,55.82 205.24,56.02C205.33,56.21 205.4,56.44 205.44,56.72C205.48,57 205.5,57.26 205.5,57.5L202.53,57.5ZM204.52,52.81C204.32,52.5 204.14,52.23 204,51.99C203.86,51.76 203.73,51.61 203.61,51.53C203.49,51.45 203.34,51.41 203.17,51.41C203.01,51.41 202.88,51.46 202.78,51.57C202.68,51.68 202.63,51.79 202.63,51.92C202.63,52.1 202.66,52.23 202.73,52.32C202.8,52.41 202.91,52.52 203.08,52.66C203.25,52.8 203.51,53 203.87,53.27C204.22,53.54 204.63,53.85 205.07,54.21L205.32,54C204.99,53.51 204.72,53.11 204.52,52.81M212.87,55.13C212.7,54.95 212.47,54.86 212.2,54.86C211.93,54.86 211.62,54.95 211.29,55.13C210.96,55.31 210.66,55.58 210.39,55.94L210.36,55.94L210.36,55.03L210.27,54.94L208.12,55.08L208.12,55.51C208.25,55.52 208.37,55.53 208.49,55.56C208.6,55.58 208.7,55.62 208.78,55.67C208.89,55.75 208.98,55.85 209.05,55.98C209.11,56.11 209.15,56.24 209.15,56.38L209.15,60.36C209.15,60.52 209.12,60.64 209.06,60.74C209,60.84 208.91,60.91 208.79,60.95C208.71,60.98 208.62,60.99 208.51,61C208.4,61.01 208.3,61.02 208.2,61.03L208.2,61.46L211.6,61.46L211.6,61.03C211.47,61.02 211.32,61.01 211.15,60.98C210.98,60.96 210.84,60.93 210.73,60.88C210.6,60.83 210.51,60.76 210.45,60.66C210.39,60.56 210.36,60.44 210.36,60.29L210.36,56.53C210.55,56.22 210.78,55.99 211.06,55.82C211.33,55.65 211.58,55.57 211.78,55.57C211.77,55.65 211.75,55.73 211.74,55.81C211.72,55.89 211.72,55.98 211.72,56.07C211.72,56.22 211.78,56.36 211.91,56.49C212.04,56.62 212.23,56.68 212.47,56.68C212.7,56.68 212.86,56.59 212.97,56.42C213.08,56.25 213.13,56.05 213.13,55.83C213.12,55.55 213.04,55.31 212.87,55.13M219.42,59.68C219.16,60.15 218.89,60.48 218.6,60.66C218.32,60.84 217.98,60.93 217.6,60.93C217.22,60.93 216.89,60.86 216.62,60.71C216.35,60.56 216.12,60.36 215.95,60.11C215.78,59.85 215.65,59.54 215.57,59.2C215.49,58.85 215.45,58.47 215.45,58.04L219.73,58.04L219.73,57.61C219.73,57.22 219.68,56.86 219.58,56.53C219.48,56.2 219.33,55.91 219.13,55.67C218.92,55.41 218.65,55.21 218.31,55.06C217.97,54.91 217.57,54.84 217.1,54.84C216.64,54.84 216.23,54.93 215.86,55.12C215.49,55.31 215.18,55.56 214.93,55.87C214.67,56.19 214.48,56.56 214.34,56.96C214.21,57.36 214.14,57.78 214.14,58.19C214.14,58.66 214.2,59.1 214.33,59.52C214.45,59.94 214.64,60.31 214.9,60.62C215.15,60.93 215.48,61.18 215.87,61.37C216.26,61.55 216.71,61.65 217.23,61.65C217.82,61.65 218.34,61.5 218.79,61.19C219.24,60.88 219.61,60.47 219.88,59.96L219.42,59.68ZM215.45,57.5C215.48,56.82 215.64,56.29 215.94,55.91C216.24,55.53 216.62,55.34 217.08,55.34C217.36,55.34 217.58,55.4 217.76,55.53C217.93,55.66 218.07,55.82 218.17,56.02C218.26,56.21 218.33,56.44 218.37,56.72C218.41,57 218.43,57.26 218.43,57.5L215.45,57.5Z" style="fill:rgb(35,31,32);fill-rule:nonzero;"/>
        </g>
        <g transform="matrix(1,0,0,1,2.2,0)">
            <path d="M37.16,2.23L37.11,32.14L33.41,32.14L33.41,5.59L24.6,32.14L21.15,32.14L12.35,5.72L12.35,32.14L8.64,32.14L8.6,2.23L14.7,2.23L22.85,27.48L31.01,2.23L37.16,2.23Z" style="fill:rgb(35,31,32);fill-rule:nonzero;"/>
        </g>
        <g transform="matrix(1,0,0,1,2.2,0)">
            <path d="M62.01,21.15L56.69,6.5L51.33,21.15L62.01,21.15ZM63.27,24.56L50.06,24.56L47.31,32.15L43.43,32.15L54.46,2.23L58.86,2.23L69.9,32.14L66.02,32.14L63.27,24.56Z" style="fill:rgb(35,31,32);fill-rule:nonzero;"/>
        </g>
        <g transform="matrix(1,0,0,1,2.2,0)">
            <path d="M87.12,16.93C91,16.93 92.96,14.53 92.96,11.26C92.96,7.99 91,5.59 87.12,5.59L80.01,5.59L80.01,16.93L87.12,16.93ZM99.33,32.01C98.59,32.23 97.8,32.36 96.89,32.36C93.1,32.36 91.53,30.4 89.96,27.52L85.99,20.11L80.02,20.11L80.02,32.14L76.18,32.14L76.18,2.23L87.12,2.23C92.7,2.23 96.84,5.37 96.84,11.26C96.84,15.84 94.27,18.67 90.47,19.67L94.13,26.78C95.09,28.57 96.22,28.87 97.27,28.87C98.01,28.87 98.58,28.83 99.01,28.65L99.33,32.01Z" style="fill:rgb(35,31,32);fill-rule:nonzero;"/>
        </g>
        <g transform="matrix(1,0,0,1,2.2,0)">
            <rect x="105.91" y="2.23" width="3.84" height="29.91" style="fill:rgb(35,31,32);fill-rule:nonzero;"/>
        </g>
        <g transform="matrix(1,0,0,1,2.2,0)">
            <path d="M142.45,2.23L142.45,20.54C142.45,27.91 137.87,32.4 130.76,32.4C123.3,32.4 119.07,27.91 119.07,20.54L119.07,2.23L122.91,2.23L122.91,20.54C122.91,26.16 125.79,29 130.76,29C135.73,29 138.61,26.17 138.61,20.54L138.61,2.23L142.45,2.23Z" style="fill:rgb(35,31,32);fill-rule:nonzero;"/>
        </g>
        <g transform="matrix(1,0,0,1,2.2,0)">
            <path d="M171.96,24.34C171.96,29.18 167.51,32.41 160.93,32.41C153.91,32.41 149.68,29.23 149.68,23.56L153.47,23.56C153.47,26.96 156.17,29.01 161.23,29.01C165.5,29.01 168.12,27.31 168.08,24.34C168.08,15.88 150.47,22.03 150.47,10.04C150.47,5.11 154.74,1.97 161.15,1.97C167.56,1.97 171.61,5.15 171.57,10.6L167.78,10.6C167.78,6.98 165.12,5.37 161.02,5.37C156.4,5.37 154.35,7.03 154.35,9.95C154.34,18.02 171.96,12 171.96,24.34Z" style="fill:rgb(35,31,32);fill-rule:nonzero;"/>
        </g>
        <g transform="matrix(1,0,0,1,2.2,0)">
            <path d="M210.28,21.15L204.96,6.5L199.6,21.15L210.28,21.15ZM211.55,24.56L198.34,24.56L195.59,32.15L191.71,32.15L202.74,2.24L207.14,2.24L218.17,32.15L214.29,32.15L211.55,24.56Z" style="fill:rgb(35,31,32);fill-rule:nonzero;"/>
        </g>
        <g transform="matrix(1,0,0,1,2.2,0)">
            <path d="M246.73,2.23L246.73,20.54C246.73,27.91 242.15,32.4 235.04,32.4C227.58,32.4 223.36,27.91 223.36,20.54L223.36,2.23L227.2,2.23L227.2,20.54C227.2,26.16 230.08,29 235.05,29C240.02,29 242.9,26.17 242.9,20.54L242.9,2.23L246.73,2.23Z" style="fill:rgb(35,31,32);fill-rule:nonzero;"/>
        </g>
        <g transform="matrix(1,0,0,1,2.2,0)">
            <path d="M267.05,16.93C270.93,16.93 272.89,14.53 272.89,11.26C272.89,7.99 270.93,5.59 267.05,5.59L259.94,5.59L259.94,16.93L267.05,16.93ZM279.26,32.01C278.52,32.23 277.73,32.36 276.82,32.36C273.03,32.36 271.46,30.4 269.89,27.52L265.92,20.11L259.95,20.11L259.95,32.14L256.11,32.14L256.11,2.23L267.05,2.23C272.63,2.23 276.77,5.37 276.77,11.26C276.77,15.84 274.2,18.67 270.4,19.67L274.06,26.78C275.02,28.57 276.15,28.87 277.2,28.87C277.94,28.87 278.51,28.83 278.94,28.65L279.26,32.01Z" style="fill:rgb(35,31,32);fill-rule:nonzero;"/>
        </g>
        <g transform="matrix(1,0,0,1,2.2,0)">
            <path d="M305.94,28.74L305.94,32.14L285.84,32.14L285.84,2.23L305.72,2.23L305.72,5.68L289.67,5.68L289.67,14.88L304.32,14.88L304.32,18.32L289.67,18.32L289.67,28.74L305.94,28.74Z" style="fill:rgb(35,31,32);fill-rule:nonzero;"/>
        </g>
        <g transform="matrix(1,0,0,1,2.2,0)">
            <path d="M337.24,2.23L337.24,32.14L333.32,32.14L317.66,8.21L317.66,32.14L313.83,32.14L313.83,2.23L317.75,2.23L333.4,26.13L333.4,2.23L337.24,2.23Z" style="fill:rgb(35,31,32);fill-rule:nonzero;"/>
        </g>
        <g transform="matrix(1,0,0,1,2.2,0)">
            <path d="M353.28,5.68L343.47,5.68L343.47,2.23L366.93,2.23L366.93,5.68L357.12,5.68L357.12,32.14L353.28,32.14L353.28,5.68Z" style="fill:rgb(35,31,32);fill-rule:nonzero;"/>
        </g>
        <g transform="matrix(1,0,0,1,2.2,0)">
            <rect x="373.16" y="2.23" width="3.84" height="29.91" style="fill:rgb(35,31,32);fill-rule:nonzero;"/>
        </g>
    </g>
</svg>
